<mxfile host="app.diagrams.net" modified="2023-12-17T17:13:09.393Z" agent="Mozilla/5.0 (Windows NT 10.0; Win64; x64; rv:120.0) Gecko/20100101 Firefox/120.0" etag="OZoyJXE-wxIYexTkzHhE" version="22.1.11" type="device">
  <diagram name="Page-1" id="0piBmzzNuuqjslALAcRJ">
    <mxGraphModel dx="1050" dy="626" grid="1" gridSize="10" guides="1" tooltips="1" connect="1" arrows="1" fold="1" page="1" pageScale="1" pageWidth="827" pageHeight="1169" math="0" shadow="0">
      <root>
        <mxCell id="0" />
        <mxCell id="1" parent="0" />
        <mxCell id="H7_bg1P-rGM-Wi8hyfqE-1" value="A" style="ellipse;whiteSpace=wrap;html=1;aspect=fixed;fillColor=#ffe6cc;strokeColor=#d79b00;" vertex="1" parent="1">
          <mxGeometry x="260" y="80" width="40" height="40" as="geometry" />
        </mxCell>
        <mxCell id="H7_bg1P-rGM-Wi8hyfqE-3" value="F" style="ellipse;whiteSpace=wrap;html=1;aspect=fixed;fillColor=#ffe6cc;strokeColor=#d79b00;" vertex="1" parent="1">
          <mxGeometry x="200" y="320" width="40" height="40" as="geometry" />
        </mxCell>
        <mxCell id="H7_bg1P-rGM-Wi8hyfqE-4" value="D" style="ellipse;whiteSpace=wrap;html=1;aspect=fixed;fillColor=#ffe6cc;strokeColor=#d79b00;" vertex="1" parent="1">
          <mxGeometry x="320" y="240" width="40" height="40" as="geometry" />
        </mxCell>
        <mxCell id="H7_bg1P-rGM-Wi8hyfqE-5" value="E" style="ellipse;whiteSpace=wrap;html=1;aspect=fixed;fillColor=#ffe6cc;strokeColor=#d79b00;" vertex="1" parent="1">
          <mxGeometry x="200" y="240" width="40" height="40" as="geometry" />
        </mxCell>
        <mxCell id="H7_bg1P-rGM-Wi8hyfqE-6" value="C" style="ellipse;whiteSpace=wrap;html=1;aspect=fixed;fillColor=#ffe6cc;strokeColor=#d79b00;" vertex="1" parent="1">
          <mxGeometry x="320" y="160" width="40" height="40" as="geometry" />
        </mxCell>
        <mxCell id="H7_bg1P-rGM-Wi8hyfqE-7" value="B" style="ellipse;whiteSpace=wrap;html=1;aspect=fixed;fillColor=#ffe6cc;strokeColor=#d79b00;" vertex="1" parent="1">
          <mxGeometry x="200" y="160" width="40" height="40" as="geometry" />
        </mxCell>
        <mxCell id="H7_bg1P-rGM-Wi8hyfqE-8" value="" style="endArrow=classic;html=1;rounded=0;exitX=0;exitY=1;exitDx=0;exitDy=0;entryX=0.75;entryY=0;entryDx=0;entryDy=0;entryPerimeter=0;" edge="1" parent="1" source="H7_bg1P-rGM-Wi8hyfqE-1" target="H7_bg1P-rGM-Wi8hyfqE-7">
          <mxGeometry width="50" height="50" relative="1" as="geometry">
            <mxPoint x="390" y="350" as="sourcePoint" />
            <mxPoint x="440" y="300" as="targetPoint" />
          </mxGeometry>
        </mxCell>
        <mxCell id="H7_bg1P-rGM-Wi8hyfqE-9" value="" style="endArrow=classic;html=1;rounded=0;exitX=0.5;exitY=1;exitDx=0;exitDy=0;entryX=0.5;entryY=0;entryDx=0;entryDy=0;" edge="1" parent="1" source="H7_bg1P-rGM-Wi8hyfqE-7" target="H7_bg1P-rGM-Wi8hyfqE-5">
          <mxGeometry width="50" height="50" relative="1" as="geometry">
            <mxPoint x="238" y="194" as="sourcePoint" />
            <mxPoint x="202" y="240" as="targetPoint" />
          </mxGeometry>
        </mxCell>
        <mxCell id="H7_bg1P-rGM-Wi8hyfqE-10" value="" style="endArrow=classic;html=1;rounded=0;exitX=0.5;exitY=1;exitDx=0;exitDy=0;entryX=0.75;entryY=0;entryDx=0;entryDy=0;entryPerimeter=0;" edge="1" parent="1" source="H7_bg1P-rGM-Wi8hyfqE-5">
          <mxGeometry width="50" height="50" relative="1" as="geometry">
            <mxPoint x="256" y="274" as="sourcePoint" />
            <mxPoint x="220" y="320" as="targetPoint" />
          </mxGeometry>
        </mxCell>
        <mxCell id="H7_bg1P-rGM-Wi8hyfqE-11" value="" style="endArrow=classic;html=1;rounded=0;exitX=1;exitY=1;exitDx=0;exitDy=0;entryX=0.35;entryY=0.05;entryDx=0;entryDy=0;entryPerimeter=0;" edge="1" parent="1" source="H7_bg1P-rGM-Wi8hyfqE-7" target="H7_bg1P-rGM-Wi8hyfqE-4">
          <mxGeometry width="50" height="50" relative="1" as="geometry">
            <mxPoint x="266" y="194" as="sourcePoint" />
            <mxPoint x="230" y="240" as="targetPoint" />
          </mxGeometry>
        </mxCell>
        <mxCell id="H7_bg1P-rGM-Wi8hyfqE-12" value="" style="endArrow=classic;html=1;rounded=0;exitX=1;exitY=1;exitDx=0;exitDy=0;" edge="1" parent="1" source="H7_bg1P-rGM-Wi8hyfqE-1" target="H7_bg1P-rGM-Wi8hyfqE-6">
          <mxGeometry width="50" height="50" relative="1" as="geometry">
            <mxPoint x="306" y="154" as="sourcePoint" />
            <mxPoint x="270" y="200" as="targetPoint" />
          </mxGeometry>
        </mxCell>
      </root>
    </mxGraphModel>
  </diagram>
</mxfile>
